<?xml version="1.0" encoding="UTF-8" standalone="no"?>
<svg
   xmlns:dc="http://purl.org/dc/elements/1.1/"
   xmlns:cc="http://creativecommons.org/ns#"
   xmlns:rdf="http://www.w3.org/1999/02/22-rdf-syntax-ns#"
   xmlns:svg="http://www.w3.org/2000/svg"
   xmlns="http://www.w3.org/2000/svg"
   xmlns:sodipodi="http://sodipodi.sourceforge.net/DTD/sodipodi-0.dtd"
   xmlns:inkscape="http://www.inkscape.org/namespaces/inkscape"
   width="88.007729mm"
   height="136.65036mm"
   viewBox="0 0 88.007729 136.65036"
   version="1.1"
   id="svg1367"
   inkscape:version="1.0.1 (3bc2e813f5, 2020-09-07)"
   sodipodi:docname="Crimson_Stratos.svg">
  <defs
     id="defs1361">
    <inkscape:path-effect
       effect="mirror_symmetry"
       start_point="89.391368,102.14806"
       end_point="179.53869,102.14806"
       center_point="134.46503,102.14806"
       id="path-effect2054"
       is_visible="true"
       lpeversion="1"
       mode="free"
       discard_orig_path="false"
       fuse_paths="false"
       oposite_fuse="false"
       split_items="true" />
  </defs>
  <sodipodi:namedview
     id="base"
     pagecolor="#ffffff"
     bordercolor="#666666"
     borderopacity="1.0"
     inkscape:pageopacity="0.0"
     inkscape:pageshadow="2"
     inkscape:zoom="0.7"
     inkscape:cx="492.40101"
     inkscape:cy="347.67544"
     inkscape:document-units="mm"
     inkscape:current-layer="g2093"
     inkscape:document-rotation="0"
     showgrid="false"
     showguides="false"
     inkscape:snap-global="false"
     inkscape:window-width="1920"
     inkscape:window-height="1017"
     inkscape:window-x="-8"
     inkscape:window-y="-8"
     inkscape:window-maximized="1" />
  <metadata
     id="metadata1364">
    <rdf:RDF>
      <cc:Work
         rdf:about="">
        <dc:format>image/svg+xml</dc:format>
        <dc:type
           rdf:resource="http://purl.org/dc/dcmitype/StillImage" />
        <dc:title />
      </cc:Work>
    </rdf:RDF>
  </metadata>
  <g
     inkscape:label="Layer 1"
     inkscape:groupmode="layer"
     id="layer1"
     transform="translate(-59.238238,-14.947176)">
    <g
       id="g2093"
       transform="translate(4.0525947,-12.918345)">
      <g
         id="g888"
         transform="rotate(-90,102.17116,90.550297)">
        <path
           style="fill:#333333;stroke:#000000;stroke-width:0.264999;stroke-linecap:butt;stroke-linejoin:miter;stroke-miterlimit:4;stroke-dasharray:none;stroke-opacity:1"
           d="m 76.743997,111.70858 20.24526,-3.92049 -2.95502,3.29791 16.369903,-2.01581 1.28011,-2.67058 12.20931,-1.40638 -2.47147,3.99111 13.2217,-2.31869 2.20705,-3.18835 12.23669,-1.21939 1.53281,2.64054 7.28325,-3.74089 6.72121,-11.489788 -70.853373,0.0642 z"
           id="path1934-6"
           sodipodi:nodetypes="ccccccccccccccc" />
        <path
           style="fill:none;stroke:#000000;stroke-width:0.264583px;stroke-linecap:butt;stroke-linejoin:miter;stroke-opacity:1"
           d="m 96.349247,95.698972 61.421133,-2.26786 6.42559,-3.77977"
           id="path2059-1" />
        <path
           style="fill:#333333;stroke:#000000;stroke-width:0.590793px;stroke-linecap:butt;stroke-linejoin:miter;stroke-opacity:1"
           d="m 83.094009,110.27771 -7.47328,20.01638 -11.95725,0.95317 3.36297,-17.63348 z"
           id="path1978" />
        <path
           style="fill:#333333;stroke:#000000;stroke-width:0.446603px;stroke-linecap:butt;stroke-linejoin:miter;stroke-opacity:1"
           d="m 82.951089,63.080627 -7.40074,-18.590462 -11.37105,-0.684451 4.075,17.285693 z"
           id="path1986"
           sodipodi:nodetypes="ccccc" />
        <path
           id="mirror-path-effect2054-7"
           d="m 76.633529,63.079247 20.250111,3.89535 -2.959111,-3.29424 16.372391,1.99547 1.28342,2.66899 12.21105,1.39121 -2.47643,-3.98804 13.22457,2.30227 2.21101,3.18561 12.2382,1.20419 1.52954,-2.64244 7.28788,3.73184 6.73548,11.48142 -70.853401,0.0238 z"
           style="fill:#333333;stroke:#000000;stroke-width:0.264583px;stroke-linecap:butt;stroke-linejoin:miter;stroke-opacity:1"
           inkscape:transform-center-x="-13.787153"
           inkscape:transform-center-y="-6.7009107" />
        <path
           style="fill:none;stroke:#000000;stroke-width:0.264583px;stroke-linecap:butt;stroke-linejoin:miter;stroke-opacity:1"
           d="m 95.420699,77.049107 62.366071,4.15774 6.4256,3.40179"
           id="path2057-1" />
        <ellipse
           style="opacity:0.998;fill:#1a1a1a;stroke:#000000;stroke-width:0.264999;stroke-linejoin:round"
           id="path1930"
           cx="69.230568"
           cy="87.161499"
           rx="28.597839"
           ry="27.79603" />
        <ellipse
           style="opacity:0.998;fill:#ff0000;stroke:#000000;stroke-width:0.264999;stroke-linejoin:round"
           id="path1932"
           cx="83.506554"
           cy="87.75531"
           rx="10.690782"
           ry="6.6817379" />
        <path
           style="fill:#1a1a1a;stroke:#000000;stroke-width:0.264583px;stroke-linecap:butt;stroke-linejoin:miter;stroke-opacity:1"
           d="m 86.775549,69.241567 c -12.81937,5.04807 -21.65302,8.28958 -21.90381,15.49724 -0.51536,14.81126 22.28179,20.977453 22.28179,20.977453 l -41.7345,9.37452 -17.0408,-19.012913 9.36103,-11.90688 -9.17204,-14.36246 16.45388,-10.909 z"
           id="path1959"
           sodipodi:nodetypes="csccccccc" />
        <path
           style="fill:#1a1a1a;stroke:#000000;stroke-width:0.264583px;stroke-linecap:butt;stroke-linejoin:miter;stroke-opacity:1"
           d="m 86.775549,69.241567 c -12.81937,5.04807 -21.65302,8.28958 -21.90381,15.49724 -0.51536,14.81126 22.28178,20.977453 22.28178,20.977453 l -40.03359,3.1379 -9.48128,-11.642363 8.03811,-13.41878 -7.66014,-12.09461 8.51639,-6.75126 z"
           id="path1959-3"
           sodipodi:nodetypes="csccccccc" />
        <path
           style="fill:none;stroke:#000000;stroke-width:0.264583px;stroke-linecap:butt;stroke-linejoin:miter;stroke-opacity:1"
           d="m 28.567219,69.808527 4.88683,-0.30919 15.05141,-9.70718"
           id="path1988"
           sodipodi:nodetypes="ccc" />
        <path
           style="fill:none;stroke:#000000;stroke-width:0.264583px;stroke-linecap:butt;stroke-linejoin:miter;stroke-opacity:1"
           d="m 28.378229,96.077867 4.23641,0.17079 16.10299,18.040693"
           id="path1994" />
        <path
           style="fill:none;stroke:#000000;stroke-width:0.264583px;stroke-linecap:butt;stroke-linejoin:miter;stroke-opacity:1"
           d="m 38.016619,71.698407 48.75893,-2.45684"
           id="path1996" />
        <path
           style="fill:none;stroke:#000000;stroke-width:0.264583px;stroke-linecap:butt;stroke-linejoin:miter;stroke-opacity:1"
           d="m 37.638649,97.211797 49.51487,8.504463"
           id="path1998" />
        <path
           style="fill:none;stroke:#000000;stroke-width:0.264583px;stroke-linecap:butt;stroke-linejoin:miter;stroke-opacity:1"
           d="m 45.676759,83.793007 20.48021,7.51117"
           id="path2000" />
        <path
           style="fill:none;stroke:#000000;stroke-width:0.264583px;stroke-linecap:butt;stroke-linejoin:miter;stroke-opacity:1"
           d="m 45.676759,83.793007 20.74748,-3.44689"
           id="path2002" />
        <path
           style="fill:none;stroke:#000000;stroke-width:0.264583px;stroke-linecap:butt;stroke-linejoin:miter;stroke-opacity:1"
           d="m 45.676759,83.793007 -7.9375,0.37798"
           id="path2004" />
        <path
           style="fill:none;stroke:#000000;stroke-width:0.264583px;stroke-linecap:butt;stroke-linejoin:miter;stroke-opacity:1"
           d="m 86.775549,69.241567 c 0,0 9.44925,5.35826 9.18198,12.04 l -0.20043,11.55941 c 0,0 -0.78594,5.79264 -8.60358,12.875283"
           id="path2006"
           sodipodi:nodetypes="cccc" />
        <path
           style="opacity:0.998;fill:#666666;stroke:#000000;stroke-width:0.133845;stroke-linejoin:round"
           d="m 40.738129,105.035 -8.04997,-9.020343 -1.15188,-0.002 c -0.63354,-7.8e-4 -1.37739,-0.0387 -1.65301,-0.0843 -0.95855,-0.15844 -0.84379,-0.35036 3.58586,-5.99675 2.24784,-2.86529 4.16212,-5.28761 4.25396,-5.38294 0.11608,-0.12051 0.93741,-0.21082 2.69497,-0.29632 1.3904,-0.0676 3.02412,-0.15537 3.63049,-0.19495 0.75348,-0.0492 1.10249,-0.0256 1.10249,0.0744 0,0.0805 -1.74765,3.05838 -3.88367,6.61754 -3.86776,6.44472 -3.88267,6.47245 -3.64154,6.77601 0.13316,0.16764 2.29921,2.829653 4.81344,5.915573 l 4.57133,5.61077 0.50679,-0.0416 c 0.27874,-0.0229 7.06158,-0.54962 15.07299,-1.17055 8.0114,-0.62092 14.91625,-1.1667 15.34411,-1.21283 l 0.77793,-0.0839 -0.0429,0.44434 -0.0429,0.44433 -14.69982,3.30637 c -8.08491,1.8185 -14.79856,3.30875 -14.91923,3.31167 -0.12543,0.003 -3.66734,-3.85827 -8.26937,-9.01505 z"
           id="path2008" />
        <path
           style="opacity:0.998;fill:#666666;stroke:#000000;stroke-width:0.133845;stroke-linejoin:round"
           d="m 33.662869,77.416207 c -4.0516,-6.35111 -4.66387,-7.45776 -4.12831,-7.46165 0.0999,-7.9e-4 1.04807,-0.0634 2.10701,-0.13934 l 1.92534,-0.13802 7.44845,-4.80515 c 4.09665,-2.64283 7.56002,-4.80365 7.69636,-4.80183 0.13635,0.002 6.74256,1.61179 14.68046,3.5777 l 14.43256,3.5744 0.0429,0.44518 0.0429,0.44519 -0.64427,-0.0824 c -0.35435,-0.0453 -7.42909,-0.8041 -15.72164,-1.68612 l -15.07738,-1.60368 -3.96557,3.14035 c -2.18107,1.72719 -4.14273,3.28325 -4.35924,3.4579 l -0.39365,0.31755 2.52699,3.99408 c 1.38984,2.19674 3.08164,4.86605 3.75954,5.93179 l 1.23256,1.9377 -0.49275,0.0839 c -0.27101,0.0461 -1.54511,0.12298 -2.83135,0.17078 -1.28623,0.0478 -2.72949,0.11987 -3.20723,0.16018 l -0.86863,0.0733 z"
           id="path2010" />
        <path
           style="opacity:0.998;fill:#ffff00;stroke:#000000;stroke-width:0.133845;stroke-linejoin:round"
           d="m 37.510269,105.95406 c -6.90103,-7.698763 -7.96885,-8.945383 -7.96885,-9.303203 0,-0.36328 0.0363,-0.40346 0.30068,-0.33261 0.16538,0.0443 0.82487,0.0814 1.46555,0.0824 l 1.16487,0.002 7.88888,8.838633 c 4.33889,4.86125 7.88889,8.87824 7.88889,8.92665 0,0.0715 -2.40535,0.67632 -2.6899,0.67632 -0.0447,0 -3.66726,-4.00051 -8.05012,-8.89002 z"
           id="path2020" />
        <path
           style="opacity:0.998;fill:#ffff00;stroke:#000000;stroke-width:0.133845;stroke-linejoin:round"
           d="m 30.744139,69.030927 c 0,-0.39739 0.27132,-0.59307 7.15743,-5.16201 l 7.15744,-4.74897 1.13504,0.28468 c 1.90181,0.47699 2.13986,0.25746 -5.89421,5.43556 l -6.9482,4.47823 -1.30375,0.0628 -1.30375,0.0628 z"
           id="path2022" />
        <path
           style="opacity:0.998;fill:#333333;stroke:#000000;stroke-width:0.133845;stroke-linejoin:round"
           d="m 43.066689,103.54397 c -3.46294,-4.250933 -4.17083,-5.189833 -4.17083,-5.531893 0,-0.35896 0.0387,-0.40294 0.30067,-0.34175 0.16538,0.0386 9.95245,1.72356 21.74906,3.744293 11.79661,2.02074 21.58369,3.70529 21.74906,3.74345 0.42092,0.0971 0.42999,0.73247 0.0104,0.73247 -0.33099,0 -34.27096,2.63781 -34.99461,2.71977 l -0.47297,0.0536 z"
           id="path2024" />
        <path
           style="opacity:0.998;fill:#333333;stroke:#000000;stroke-width:0.133845;stroke-linejoin:round"
           d="m 39.697669,71.023447 c 0,-0.34932 0.35501,-0.67082 3.4558,-3.12952 l 3.45579,-2.7402 16.62283,1.78347 c 9.14255,0.98092 16.63786,1.78785 16.65623,1.79318 0.13199,0.0383 -0.003,0.67787 -0.14304,0.67787 -0.0971,0 -9.10214,0.45102 -20.0113,1.00226 -10.90917,0.55125 -19.88018,1.00226 -19.93559,1.00226 -0.0554,0 -0.10072,-0.17519 -0.10072,-0.38932 z"
           id="path2026" />
        <path
           style="opacity:0.998;fill:#333333;stroke:#000000;stroke-width:0.133845;stroke-linejoin:round"
           d="m 56.402009,87.518297 c -8.37615,-3.07992 -8.48632,-3.12514 -8.52521,-3.49932 l -0.0394,-0.37908 8.92611,-1.48801 c 4.90936,-0.81841 8.94992,-1.46602 8.97902,-1.43913 0.0291,0.0269 -0.10401,0.39855 -0.2958,0.8259 -0.99506,2.21729 -1.00891,5.29791 -0.0367,8.14867 l 0.33043,0.96885 -0.42634,-0.009 c -0.2345,-0.005 -4.24497,-1.41293 -8.91217,-3.12906 z"
           id="path2028" />
        <path
           style="opacity:0.998;fill:#333333;stroke:#000000;stroke-width:0.133845;stroke-linejoin:round"
           d="m 85.023279,104.82281 c -4.33026,-1.5006 -8.62427,-3.70987 -12.08042,-6.215363 -1.64031,-1.18912 -4.30861,-3.90396 -5.28544,-5.37762 -1.9041,-2.87254 -2.67337,-5.4358 -2.53702,-8.45358 0.10733,-2.37552 0.86034,-3.99113 2.71876,-5.83315 2.50145,-2.47938 6.22463,-4.42682 15.65799,-8.19008 2.11096,-0.84213 3.20392,-1.21394 3.40769,-1.15926 0.16499,0.0443 0.82545,0.45903 1.46768,0.92169 3.6945,2.66149 5.99965,5.3405 6.95904,8.08769 l 0.40574,1.16181 -0.0211,3.40768 c -0.0442,7.11404 -0.15324,9.74201 -0.44655,10.7576 -0.83753,2.89994 -3.38548,6.782663 -6.59736,10.053443 -1.11379,1.13422 -1.41598,1.37157 -1.74161,1.36796 -0.21669,-0.002 -1.075,-0.24037 -1.90735,-0.52882 z m 0.2157,-10.299673 c 4.17472,-0.45707 7.43537,-2.2525 8.67494,-4.77672 0.32496,-0.66173 0.37355,-0.91713 0.37355,-1.96339 0,-1.027 -0.0526,-1.31502 -0.36027,-1.97146 -0.95635,-2.04073 -3.58837,-3.79991 -6.76567,-4.52202 -1.666,-0.37864 -4.41122,-0.46987 -6.14308,-0.20416 -4.5416,0.6968 -7.76908,3.01399 -8.31352,5.96874 -0.55925,3.03505 2.48168,6.1059 7.08267,7.15237 1.9293,0.43881 3.50148,0.53013 5.45138,0.31664 z"
           id="path2041" />
        <path
           style="fill:none;stroke:#000000;stroke-width:0.264583px;stroke-linecap:butt;stroke-linejoin:miter;stroke-opacity:1"
           d="m 65.041919,47.318945 5.29167,2.834822 2.07887,9.26041"
           id="path2061" />
        <path
           style="fill:none;stroke:#000000;stroke-width:0.264583px;stroke-linecap:butt;stroke-linejoin:miter;stroke-opacity:1"
           d="m 70.900549,114.78769 -1.88988,10.01638 -4.7247,3.40179"
           id="path2063"
           sodipodi:nodetypes="ccc" />
      </g>
    </g>
  </g>
</svg>
