<?xml version="1.0" encoding="UTF-8" standalone="no"?>
<svg
   xmlns:dc="http://purl.org/dc/elements/1.1/"
   xmlns:cc="http://creativecommons.org/ns#"
   xmlns:rdf="http://www.w3.org/1999/02/22-rdf-syntax-ns#"
   xmlns:svg="http://www.w3.org/2000/svg"
   xmlns="http://www.w3.org/2000/svg"
   xmlns:sodipodi="http://sodipodi.sourceforge.net/DTD/sodipodi-0.dtd"
   xmlns:inkscape="http://www.inkscape.org/namespaces/inkscape"
   width="100mm"
   height="100mm"
   viewBox="0 0 99.999995 100"
   version="1.1"
   id="svg8"
   inkscape:version="1.0.1 (3bc2e813f5, 2020-09-07)"
   sodipodi:docname="Background_Texture.svg">
  <defs
     id="defs2" />
  <sodipodi:namedview
     id="base"
     pagecolor="#ffffff"
     bordercolor="#666666"
     borderopacity="1.0"
     inkscape:pageopacity="0.0"
     inkscape:pageshadow="2"
     inkscape:zoom="1.4"
     inkscape:cx="394.09963"
     inkscape:cy="230.67948"
     inkscape:document-units="mm"
     inkscape:current-layer="g3377"
     inkscape:document-rotation="0"
     showgrid="false"
     inkscape:window-width="1920"
     inkscape:window-height="1017"
     inkscape:window-x="-8"
     inkscape:window-y="-8"
     inkscape:window-maximized="1"
     showguides="false"
     units="mm"
     height="100mm" />
  <metadata
     id="metadata5">
    <rdf:RDF>
      <cc:Work
         rdf:about="">
        <dc:format>image/svg+xml</dc:format>
        <dc:type
           rdf:resource="http://purl.org/dc/dcmitype/StillImage" />
        <dc:title />
      </cc:Work>
    </rdf:RDF>
  </metadata>
  <g
     inkscape:label="Layer 1"
     inkscape:groupmode="layer"
     id="layer1">
    <g
       id="g1395"
       transform="translate(125.42768,97.493159)" />
    <g
       id="g3237"
       transform="matrix(0.58218477,0,0,0.58218477,17.219045,-71.266738)"
       style="stroke:#ffffff">
      <g
         id="g3377"
         transform="matrix(-0.91461368,0,0,0.91460268,115.50886,10.410296)"
         style="stroke:#ffffff">
        <path
           style="fill:none;stroke:none;stroke-width:0.120364;stroke-linecap:butt;stroke-linejoin:miter;stroke-miterlimit:4;stroke-dasharray:none;stroke-opacity:1"
           d="m -29.172223,310.26403 187.802343,-3e-5 1e-5,-187.80235 -187.802353,10e-6 v 187.80237"
           id="path2101" />
        <path
           id="path2393"
           style="fill:none;stroke:#ffffff;stroke-width:0.369389;stroke-linejoin:round;stroke-miterlimit:4;stroke-dasharray:none"
           d="M 64.642969,187.74249 A 28.624276,28.624276 0 0 0 36.018879,216.3671 28.624276,28.624276 0 0 0 64.642969,244.99119 28.624276,28.624276 0 0 0 93.267578,216.3671 28.624276,28.624276 0 0 0 64.642969,187.74249 Z" />
        <path
           id="path1727"
           style="color:#000000;font-style:normal;font-variant:normal;font-weight:normal;font-stretch:normal;font-size:medium;line-height:normal;font-family:sans-serif;font-variant-ligatures:normal;font-variant-position:normal;font-variant-caps:normal;font-variant-numeric:normal;font-variant-alternates:normal;font-variant-east-asian:normal;font-feature-settings:normal;font-variation-settings:normal;text-indent:0;text-align:start;text-decoration:none;text-decoration-line:none;text-decoration-style:solid;text-decoration-color:#000000;letter-spacing:normal;word-spacing:normal;text-transform:none;writing-mode:lr-tb;direction:ltr;text-orientation:mixed;dominant-baseline:auto;baseline-shift:baseline;text-anchor:start;white-space:normal;shape-padding:0;shape-margin:0;inline-size:0;clip-rule:nonzero;display:inline;overflow:visible;visibility:visible;opacity:0.998;isolation:auto;mix-blend-mode:normal;color-interpolation:sRGB;color-interpolation-filters:linearRGB;solid-color:#000000;solid-opacity:1;vector-effect:none;fill:#000000;fill-opacity:1;fill-rule:nonzero;stroke:#ffffff;stroke-width:0.343877;stroke-linecap:butt;stroke-linejoin:round;stroke-miterlimit:4;stroke-dasharray:none;stroke-dashoffset:0;stroke-opacity:1;color-rendering:auto;image-rendering:auto;shape-rendering:auto;text-rendering:auto;enable-background:accumulate;stop-color:#000000"
           d="m 23.84236,122.46172 -4.271058,19.77192 -5.443077,0.0346 0.0956,48.26527 38.591958,-0.0935 -0.0021,-0.26562 -38.326342,0.0956 -0.09353,-47.74024 5.217768,-0.031 5.891631,9.10125 h -0.01188 l -0.02326,36.47891 32.411977,-0.47284 v 0.90641 h 0.263548 v -1.17409 l -32.411973,0.47284 0.02326,-36.10943 h 4.638477 c 0.459944,1.79389 1.013373,2.87032 1.459341,3.49798 0.227597,0.32032 0.427276,0.52527 0.572058,0.65061 0.06369,0.0551 0.113419,0.09 0.154514,0.11782 l 0.09973,30.02091 27.929562,-0.26769 0.01188,2.22467 0.263548,-0.002 -0.01188,-2.49029 -27.929562,0.26562 -0.09974,-29.75116 0.588079,-0.39171 0.796851,4.84415 h 4.021976 l 0.108519,23.16189 24.18974,-0.20102 0.06459,4.34548 0.265615,-0.004 -0.07028,-4.60747 -24.185605,0.19895 -0.107487,-22.99601 h -0.03256 l 0.781865,-4.72891 0.479042,0.38137 0.02739,0.004 c 0,0 0.01595,0.003 0.02532,0.002 0.0094,-5.3e-4 0.02035,-0.003 0.03152,-0.006 0.02236,-0.006 0.04728,-0.0164 0.07803,-0.0351 0.06148,-0.0373 0.144388,-0.10651 0.259932,-0.2403 0.231089,-0.26757 0.594825,-0.79731 1.158068,-1.87688 l 1.086757,-2.0836 0.05581,0.0227 -0.0062,-0.0465 c 0.03925,-0.003 0.07857,-0.006 0.117822,-0.01 0.226086,1.64852 0.625322,3.24245 1.18029,4.7625 l 0.01654,0.1204 c 0.0088,-0.001 0.01757,-0.002 0.02635,-0.004 0.56043,1.5096 1.27435,2.945 2.12235,4.28914 -0.0098,0.002 -0.01963,0.003 -0.02946,0.005 l 0.03514,0.1974 c 0.03663,-0.007 0.07343,-0.0121 0.110069,-0.0186 0.920697,1.42963 1.994932,2.7539 3.198771,3.94808 l -3.585311,0.0693 -3.95428,-1.41077 -0.03411,0.0935 -0.09043,0.0429 c 0,0 0.640858,1.32766 1.576131,2.92592 0.935273,1.59825 2.163302,3.46834 3.361033,4.57026 1.195761,1.1001 3.136503,2.23403 4.781622,3.098 1.558721,0.81862 2.770126,1.35433 2.901632,1.41232 l -0.09715,6.70089 10.019543,-0.18966 v 5.34593 h 0.263549 v -5.61516 l -10.013857,0.18913 0.0894,-6.31434 0.05736,0.0253 -0.05529,-0.13591 5.29e-4,-0.0532 -0.02273,-5.3e-4 -1.711524,-4.18321 -0.174151,-3.83853 c 3.778541,2.57827 8.3553,4.08865 13.287562,4.08864 3.129082,0 6.114384,-0.60907 8.844421,-1.71152 l -0.02791,3.81269 -17.434078,0.23667 -0.05064,6.87659 8.789128,-0.0465 v 6.62285 h 0.265615 v -6.88847 l -8.787058,0.0465 0.04496,-6.35155 17.433559,-0.23616 0.03256,-4.18062 c 1.433238,-0.59931 2.793873,-1.33567 4.065384,-2.19264 l -0.170013,3.76205 -1.665015,4.05091 H 58.825219 v 4.42351 l 8.691459,-0.18759 -0.09353,7.99796 0.265615,0.002 0.0956,-8.27133 -8.695592,0.18965 v -3.8907 h 17.980813 l -0.02376,0.0584 0.132807,-0.0584 h 0.05271 v -0.0233 l 0.04134,-0.0181 c 0,0 1.354598,-0.59072 3.007569,-1.45469 1.652958,-0.86397 3.603442,-1.99794 4.804873,-3.098 1.20342,-1.10187 2.437304,-2.97201 3.377054,-4.57026 0.939742,-1.59827 1.583883,-2.92592 1.583883,-2.92592 l -0.09095,-0.0429 -0.0341,-0.0935 -3.971851,1.41077 -3.514516,-0.0672 c 3.525197,-3.49585 5.933276,-8.09915 6.652826,-13.23796 l 0.08785,-0.0362 1.064016,2.0867 c 0.550662,1.07982 0.906767,1.61124 1.132748,1.87895 0.11299,0.13386 0.193788,0.20074 0.254248,0.23823 0.0302,0.0188 0.05573,0.0312 0.07803,0.0372 0.01119,0.003 0.02162,0.003 0.03101,0.004 0.009,5.3e-4 0.02532,0 0.02532,0 l 0.02739,-0.004 0.465603,-0.37827 0.762228,4.72632 -0.03049,-5.3e-4 -0.142626,16.43931 -23.718451,0.37931 v 10.90217 h 0.263551 v -10.64276 l 23.718448,-0.37672 0.143661,-16.5995 h 3.931026 l 0.777213,-4.84363 0.572059,0.38912 -0.01757,22.49165 -27.214874,0.18914 v 9.95908 h 0.263548 v -9.69554 l 27.214878,-0.18913 0.01757,-22.75469 c 0.04005,-0.0282 0.08817,-0.0632 0.150379,-0.11833 0.14165,-0.12546 0.336113,-0.3302 0.558622,-0.65061 0.434372,-0.62545 0.972974,-1.69635 1.421614,-3.47834 h 4.88187 l 0.17157,28.72279 -32.468815,0.0935 v 0.13281 l -0.132808,0.002 0.0956,8.59948 0.263552,-0.004 -0.09198,-8.46563 32.598011,-0.0951 -0.17001,-29.08608 h -0.0145 l 5.96191,-9.34775 -4.21473,-19.81016 H 107.599 l 4.19768,19.72903 -22.492684,9.27075 3.822504,-28.99978 h -0.201538 l -3.692282,28.00397 c 0.05276,-0.63718 0.08113,-1.2815 0.08113,-1.93218 0,-5.29506 -1.782837,-10.17662 -4.783685,-14.08906 l 0.02739,0.004 1.544608,-11.98635 h -0.202054 l -1.519288,11.78947 c -2.33054,-2.9738 -5.370962,-5.3727 -8.869741,-6.9448 -0.633597,-1.81993 -0.928573,-3.45846 -1.044382,-4.84467 h -0.204639 c 0.112162,1.35284 0.395161,2.95197 0.99994,4.73615 -1.687052,-0.73467 -3.477234,-1.27883 -5.343861,-1.60352 0.01471,-0.006 0.02588,-0.008 0.04186,-0.0155 0.212648,-0.0994 0.540702,-0.32851 1.056783,-0.86145 l 0.01963,-0.0212 0.514696,-2.23449 h -0.204639 l -0.489892,2.12855 c -0.4913,0.50363 -0.807532,0.72794 -0.980302,0.80874 -0.0879,0.0411 -0.14092,0.048 -0.164331,0.0486 -0.01169,2.7e-4 -0.0159,-0.002 -0.0155,-0.002 2.64e-4,1e-4 0.01394,0.008 0.01394,0.008 l -0.05995,0.0966 c -1.241269,-0.20123 -2.514621,-0.30747 -3.813202,-0.30747 -0.972724,0 -1.931503,0.0596 -2.873211,0.17363 l -0.07235,-0.13281 c 0,0 0.0123,-0.006 0.01188,-0.006 -5.3e-4,10e-5 -0.0067,0.003 -0.01963,0.002 -0.02588,-0.001 -0.07957,-0.0127 -0.170016,-0.0569 -0.17747,-0.0868 -0.498145,-0.31983 -0.988055,-0.83767 l -0.379304,-1.9234 h -0.204639 l 0.398425,2.02314 0.01913,0.0217 c 0.515967,0.54985 0.849908,0.79004 1.066602,0.89607 0.041,0.0201 0.07464,0.0314 0.108003,0.0429 -2.013035,0.26381 -3.945295,0.78101 -5.76399,1.51774 0.68041,-1.67068 1.055989,-3.19295 1.249537,-4.50154 h -0.20619 c -0.200065,1.34198 -0.589624,2.90143 -1.302245,4.60696 -3.919775,1.64248 -7.29511,4.31159 -9.786482,7.66671 l -1.546159,-12.27367 h -0.199988 l 1.575096,12.50622 c -2.76452,3.8206 -4.393012,8.50418 -4.393012,13.56558 0,1.0061 0.06435,1.99737 0.189135,2.96984 -0.03874,0.003 -0.07753,0.006 -0.116271,0.01 l -3.879853,-29.05147 h -0.202572 l 3.870565,28.98221 -22.46168,-9.13846 4.286562,-19.84375 z m 40.328804,0 c 0.42118,0.77323 1.233176,1.29863 2.165761,1.29863 0.932005,0 1.740683,-0.52593 2.161108,-1.29863 h -0.22996 c -0.399034,0.65828 -1.112779,1.09761 -1.931148,1.09761 -0.818801,0 -1.533872,-0.43895 -1.933216,-1.09761 z m 1.66605,2.98225 c 3.389984,0 6.60986,0.71924 9.514663,2.01124 0.02148,0.0609 0.04132,0.12109 0.06356,0.18242 l 0.186552,-0.0687 c 7.97799,3.66199 13.512353,11.67092 13.512353,20.96461 0,1.00439 -0.06481,1.99414 -0.190169,2.96468 -1.349007,-0.11211 -13.977271,-1.11917 -29.505177,-0.84543 -5.348899,0.0943 -11.023105,0.34275 -16.670816,0.83406 -0.124397,-0.96688 -0.188619,-1.95286 -0.188619,-2.95331 3e-6,-9.56857 5.865974,-17.77662 14.226005,-21.27932 l 0.05529,0.0238 c 0.0079,-0.0186 0.0149,-0.0367 0.02273,-0.0553 2.761549,-1.14531 5.792877,-1.7787 8.973613,-1.7787 z m -0.04703,3.53311 c -1.784665,0 -3.393572,1.09891 -4.549077,2.85358 -1.155501,1.75465 -1.865002,4.16867 -1.865002,6.8342 2e-6,2.66553 0.709501,5.08111 1.865002,6.83576 1.155505,1.75465 2.764415,2.85151 4.549077,2.85151 1.784665,0 3.393059,-1.09686 4.54856,-2.85151 1.155499,-1.75465 1.865519,-4.17023 1.865519,-6.83576 0,-2.66553 -0.71002,-5.07955 -1.865519,-6.8342 -1.155501,-1.75467 -2.763895,-2.85358 -4.54856,-2.85358 z m 0,0.19947 c 1.702599,0 3.250811,1.04803 4.380611,2.76366 1.1298,1.71563 1.834007,4.09471 1.833996,6.72465 0,2.62994 -0.704196,5.00852 -1.833996,6.72414 -1.1298,1.71563 -2.678015,2.76366 -4.380611,2.76366 -1.702597,0 -3.251324,-1.04803 -4.381127,-2.76366 -1.129803,-1.71562 -1.833996,-4.0942 -1.833996,-6.72414 -3e-6,-2.62994 0.704193,-5.00902 1.833996,-6.72465 1.129803,-1.71563 2.67853,-2.76366 4.381127,-2.76366 z m 45.868516,13.28808 -5.77484,9.05526 H 89.685369 Z m -91.758219,0.11266 21.933026,8.92348 H 25.676875 Z m 46.107778,8.22998 c 12.560331,0.0476 21.955773,0.81221 22.887492,0.89039 -0.715362,5.17881 -3.160852,9.80964 -6.740675,13.301 l -0.407726,-0.008 c 0,0 -8.89449,-0.73722 -20.134688,-0.55294 -3.746733,0.0614 -7.754572,0.22532 -11.779644,0.55294 l -0.315741,0.006 c -1.229825,-1.19967 -2.326455,-2.53328 -3.264402,-3.97805 18.683274,-3.25979 38.554752,0.70797 38.554752,0.70797 l 0.03927,-0.19534 c 0,0 -11.321187,-2.26449 -24.924059,-1.97455 -4.456776,0.095 -9.15807,0.46487 -13.787273,1.27796 -0.852025,-1.33999 -1.569284,-2.77266 -2.132169,-4.27985 21.701543,-2.93744 43.427324,0.21498 43.427324,0.21498 l 0.02945,-0.1974 c 0,0 -12.317995,-1.79028 -27.679962,-1.42162 -5.062747,0.12151 -10.456167,0.47838 -15.848129,1.21027 -0.542345,-1.49333 -0.933389,-3.05805 -1.156001,-4.6762 7.082207,-0.61578 14.20895,-0.85037 20.679356,-0.87747 0.863918,-0.004 1.715461,-0.004 2.552817,-5.3e-4 z m -35.406108,0.89452 H 42.20248 l -1.056783,2.02314 c -0.559284,1.07197 -0.919501,1.59328 -1.132747,1.84019 -0.106625,0.12346 -0.175856,0.17776 -0.210842,0.19896 l -0.57464,-0.45889 h -5.751587 l -0.763778,0.50798 c -0.02352,-0.0133 -0.0534,-0.0264 -0.156062,-0.11524 -0.132201,-0.11444 -0.322164,-0.30533 -0.541054,-0.6134 -0.424706,-0.59773 -0.960564,-1.63906 -1.412833,-3.38274 z m 58.792276,0.0176 h 11.322313 c -0.44125,1.73256 -0.964018,2.7695 -1.377699,3.36517 -0.214011,0.30816 -0.398468,0.49902 -0.527617,0.6134 -0.0998,0.0883 -0.127198,0.10177 -0.150378,0.11524 l -0.744141,-0.50798 h -5.628597 l -0.558623,0.45682 c -0.0342,-0.0214 -0.101944,-0.0726 -0.205155,-0.19482 -0.208439,-0.24693 -0.560605,-0.76998 -1.107425,-1.84227 z m -55.770755,3.78685 h 5.451864 l -0.77928,4.71289 h -3.898471 z m 58.818115,0 h 5.325774 l -0.756544,4.71496 h -3.808553 z m -2.690275,8.42636 c -0.138499,0.2811 -0.646549,1.30339 -1.46141,2.68924 -0.93543,1.59092 -2.169618,3.45175 -3.339846,4.52324 -1.17221,1.07331 -3.115067,2.208 -4.761468,3.06855 -1.5185,0.79368 -2.576076,1.25315 -2.763655,1.33583 l 1.600419,-3.89278 6.994406,-6.39703 z m -47.884416,5.3e-4 3.71502,1.32757 6.958748,6.39444 1.593183,3.89434 c -0.187304,-0.0829 -1.239438,-0.54241 -2.750219,-1.33584 -1.638549,-0.86053 -3.571618,-1.99528 -4.738211,-3.06855 -1.164617,-1.07144 -2.39336,-2.93231 -3.324344,-4.52324 -0.810752,-1.38546 -1.316186,-2.4072 -1.454177,-2.68872 z m 22.500952,0.67696 c 9.893499,-0.0387 17.363282,0.57981 17.363282,0.57981 l 0.0083,-0.0997 -0.0021,0.0997 0.216006,0.004 c -0.857946,0.81684 -1.778905,1.56865 -2.754868,2.24844 l -0.168466,-0.009 -0.0057,0.12867 c -1.272691,0.86947 -2.636624,1.61709 -4.075203,2.22467 l 0.0011,-0.11059 -0.13281,-10e-4 0.0217,-0.0987 c 0,0 -4.903779,-1.10682 -11.312488,-0.82992 h -5.29e-4 c -2.136235,0.0923 -4.438107,0.33748 -6.783049,0.82992 l 0.04134,0.19534 c 8.996432,-1.88925 17.312381,-0.15028 17.899685,-0.0227 l -0.0011,0.14728 c -2.727391,1.1123 -5.713923,1.72703 -8.84597,1.72703 -4.945047,0 -9.528599,-1.53023 -13.298414,-4.13774 l -0.0026,-0.0517 -0.0677,0.003 c -0.973751,-0.6788 -1.893004,-1.42902 -2.749185,-2.2443 l 0.123505,-0.003 -0.0016,-0.0956 0.0072,0.0951 c 5.024681,-0.40899 10.022483,-0.56224 14.519526,-0.57982 z m -14.92777,0.58808 c 0.900819,0.87239 1.87125,1.67402 2.903699,2.39468 l 0.171048,3.76928 -6.63112,-6.09368 z m 32.792831,0.002 3.480925,0.0682 -6.66006,6.09213 0.166915,-3.69228 c 1.072536,-0.73971 2.080212,-1.56561 3.01222,-2.46806 z" />
        <path
           id="path1619"
           style="color:#000000;font-style:normal;font-variant:normal;font-weight:normal;font-stretch:normal;font-size:medium;line-height:normal;font-family:sans-serif;font-variant-ligatures:normal;font-variant-position:normal;font-variant-caps:normal;font-variant-numeric:normal;font-variant-alternates:normal;font-variant-east-asian:normal;font-feature-settings:normal;font-variation-settings:normal;text-indent:0;text-align:start;text-decoration:none;text-decoration-line:none;text-decoration-style:solid;text-decoration-color:#000000;letter-spacing:normal;word-spacing:normal;text-transform:none;writing-mode:lr-tb;direction:ltr;text-orientation:mixed;dominant-baseline:auto;baseline-shift:baseline;text-anchor:start;white-space:normal;shape-padding:0;shape-margin:0;inline-size:0;clip-rule:nonzero;display:inline;overflow:visible;visibility:visible;isolation:auto;mix-blend-mode:normal;color-interpolation:sRGB;color-interpolation-filters:linearRGB;solid-color:#000000;solid-opacity:1;vector-effect:none;fill:#000000;fill-opacity:1;fill-rule:nonzero;stroke:#ffffff;stroke-width:0.343877;stroke-linecap:butt;stroke-linejoin:miter;stroke-miterlimit:4;stroke-dasharray:none;stroke-dashoffset:0;stroke-opacity:1;color-rendering:auto;image-rendering:auto;shape-rendering:auto;text-rendering:auto;enable-background:accumulate;stop-color:#000000"
           d="m -17.053334,192.34634 -0.0041,5.15472 -12.114506,-1.51256 v 0.44286 l 1.784387,2.03399 -1.784387,-0.39481 v 0.20567 l 2.335258,0.51728 -2.275314,-2.59571 12.119157,1.51361 0.974618,2.07842 9.5312007,1.11312 -1.8712034,-3.08974 9.7833832,1.74408 1.6815488,2.48409 9.4040777,0.94723 1.146699,-2.02727 5.421891,2.84582 4.781619,8.34988 -4.695835,-2.54713 -46.919099,-3.20653 c -0.397644,-1.05704 -0.870227,-2.05908 -1.418001,-3.00601 v 0.5705 c 0.429638,0.7779 0.814073,1.58427 1.1467,2.41691 l -0.19017,-0.0129 -0.01395,0.19895 0.285254,0.0196 c 0.932348,2.40598 1.449008,5.01819 1.449007,7.75198 0,1.15896 -0.09287,2.29616 -0.269751,3.40548 -0.758547,2.72064 -1.424289,4.94021 -2.407088,6.91327 v 0.46251 c 0.73279,-1.27278 1.343095,-2.62435 1.807125,-4.04265 l 46.520158,-1.7601 4.848283,-2.92385 0.151929,-0.002 -5.002279,8.76587 -5.419825,2.85358 -1.146183,-2.02779 -9.4045935,0.96119 -1.679485,2.48408 -9.7792478,1.75803 1.8670695,-3.0918 -9.5312012,1.125 -0.971,2.07997 -12.11709,1.52963 2.261878,-2.58796 -2.405538,0.45372 v 0.20309 l 1.876371,-0.35399 -1.876371,2.14561 v 0.35864 l 12.393559,-1.56477 0.973067,-2.07842 9.0134028,-1.06454 -1.8040242,2.98432 h -0.01447 v 0.0243 l -0.068213,0.11265 0.068213,-0.0124 -0.00362,5.85029 37.9491054,-0.13488 V 220.2 l 6.82439,0.0527 0.0021,-0.26562 -7.090008,-0.0548 v 16.97261 l -37.4220045,0.1328 0.0062,-5.63221 9.9663164,-1.79162 1.6737992,-2.47634 9.1798029,-0.93792 1.104323,1.94923 h -0.01654 l 0.0062,2.53938 h 13.29273 l 0.04702,-11.5409 9.1798,0.0191 v -0.26562 l -9.443349,-0.0176 -0.04703,11.53934 h -12.76563 l -0.0057,-2.23139 5.400188,-2.84272 v 0.0191 l 6.408393,-0.0605 0.0956,-7.37113 10.310482,-0.047 v -0.26351 l -10.572483,0.047 -0.09353,7.37113 -5.958811,0.0584 4.951119,-8.67595 11.533148,-0.0956 -0.0021,-0.26355 -11.570351,0.0941 v 0.0315 l -0.374655,0.005 -0.0021,-0.004 -0.0062,0.004 -50.391755,0.70641 c 0.0991,-0.84037 0.151928,-1.69472 0.151928,-2.5616 10e-7,-0.52292 -0.01986,-1.04125 -0.05633,-1.55494 l 50.618615,-0.0191 v 0.0331 l 11.916069,-0.0605 -0.0021,-0.26562 -11.877312,0.0605 -5.08186,-8.87904 -5.137672,-2.69751 10.040216,-0.006 v 8.48631 H 36.819283 V 209.1738 H 24.38951 v -8.4863 l -10.771436,0.006 v 0.0196 l -0.03876,-0.0202 -1.177705,2.08411 -9.18187,-0.92552 -1.6779319,-2.47686 -10.300664,-1.83761 1.8887736,3.11919 -9.0154707,-1.05265 -0.929142,-1.98437 h 0.02067 l 0.0042,-5.00586 48.11696,0.37466 0.09405,14.36346 5.988267,0.0956 0.0036,-0.26355 -5.728333,-0.092 -0.09405,-14.36502 z m -12.11864,13.01471 v 0.36277 c 0.786495,1.22323 1.313665,2.59393 1.257288,4.03851 l -0.152446,8.98808 c 0,0 -0.14543,1.10692 -1.031461,2.91249 -0.02213,0.0451 -0.05032,0.0956 -0.07338,0.14159 v 0.43408 c 0.0874,-0.16513 0.176941,-0.33239 0.253215,-0.48782 0.896558,-1.82702 1.050581,-2.97501 1.050581,-2.97501 v -0.006 l 0.152446,-8.99997 c 0.06251,-1.60181 -0.561332,-3.09857 -1.456242,-4.40903 z m 1.496033,1.24747 46.784223,3.1967 4.861718,2.6386 0.02687,-0.0491 0.09974,0.17415 -50.435164,0.0176 c -0.05501,-0.52801 -0.125132,-1.04525 -0.206706,-1.55391 -6.61e-4,-0.004 -0.0014,-0.009 -0.0021,-0.0129 -0.022,-0.13678 -0.04429,-0.27338 -0.06821,-0.40876 -0.02771,-0.15947 -0.05719,-0.31818 -0.08837,-0.47645 -0.0046,-0.0235 -0.0088,-0.0473 -0.01344,-0.0708 -0.02076,-0.10353 -0.04288,-0.20654 -0.06511,-0.30954 -0.232213,-1.09657 -0.528988,-2.14564 -0.893486,-3.14555 z m -1.496033,7.29568 v 1.80247 c 0.0776,-0.29275 0.120406,-0.59355 0.120406,-0.90123 0,-0.3077 -0.0428,-0.60845 -0.120406,-0.90124 z m 52.778172,2.49855 -4.511352,2.72077 -46.393549,1.75493 c 0.320431,-1.01327 0.568083,-2.05825 0.737422,-3.12952 0.06172,-0.22089 0.120366,-0.41929 0.183452,-0.647 z" />
        <path
           id="path1879"
           style="color:#000000;font-style:normal;font-variant:normal;font-weight:normal;font-stretch:normal;font-size:medium;line-height:normal;font-family:sans-serif;font-variant-ligatures:normal;font-variant-position:normal;font-variant-caps:normal;font-variant-numeric:normal;font-variant-alternates:normal;font-variant-east-asian:normal;font-feature-settings:normal;font-variation-settings:normal;text-indent:0;text-align:start;text-decoration:none;text-decoration-line:none;text-decoration-style:solid;text-decoration-color:#000000;letter-spacing:normal;word-spacing:normal;text-transform:none;writing-mode:lr-tb;direction:ltr;text-orientation:mixed;dominant-baseline:auto;baseline-shift:baseline;text-anchor:start;white-space:normal;shape-padding:0;shape-margin:0;inline-size:0;clip-rule:nonzero;display:inline;overflow:visible;visibility:visible;isolation:auto;mix-blend-mode:normal;color-interpolation:sRGB;color-interpolation-filters:linearRGB;solid-color:#000000;solid-opacity:1;vector-effect:none;fill:#000000;fill-opacity:1;fill-rule:nonzero;stroke:#ffffff;stroke-width:0.343534;stroke-linecap:butt;stroke-linejoin:miter;stroke-miterlimit:4;stroke-dasharray:none;stroke-dashoffset:0;stroke-opacity:1;color-rendering:auto;image-rendering:auto;shape-rendering:auto;text-rendering:auto;enable-background:accumulate;stop-color:#000000"
           d="m 135.72752,180.48867 0.61392,2.71043 -29.42043,0.1726 v 25.04084 l -14.750005,0.0941 0.0021,0.26561 15.013555,-0.0961 V 183.6353 l 29.21527,-0.17156 2.07894,9.17618 c -2.81039,0.15313 -5.47665,0.84074 -7.90494,1.95544 l -9.28988,-2.35851 -12.61111,8.57053 0.0191,0.0305 -0.015,5.3e-4 0.22221,9.46299 -16.257401,-0.0465 v 0.26562 l 16.531291,0.0465 -0.22273,-9.31416 6.62492,10.62984 -22.603784,0.11989 0.0021,0.26561 22.572274,-0.11988 -7.00991,9.13742 12.82144,14.66371 -13.0421,-0.0388 -0.37672,-22.4901 -14.824424,0.047 v 0.26561 l 14.564484,-0.047 0.37724,22.48803 13.5506,0.0393 v -0.0305 l 9.01237,-2.0748 c 2.22596,1.01554 4.65041,1.67317 7.20266,1.88877 l -2.43706,12.52688 H 106.28789 L 106.09876,214.6024 H 93.163192 v 0.26355 h 12.672098 l 0.18913,33.92353 h 29.43748 v -0.031 l 9.15242,-0.7483 5.68854,-14.67921 c 0.67384,-0.37461 1.32437,-0.78495 1.95182,-1.22628 l 6.37532,-1.20303 v -0.20308 l -5.98258,1.12809 c 1.52907,-1.12657 2.90276,-2.44885 4.08915,-3.92741 0.14308,-0.17461 0.28172,-0.34991 0.41497,-0.52606 0.0222,-0.0295 0.0435,-0.0598 0.0656,-0.0894 0.14371,-0.19262 0.28193,-0.38621 0.41496,-0.58136 0.35529,-0.51085 0.68645,-1.03916 0.99788,-1.58027 v -0.46044 c -0.0971,0.19483 -0.1934,0.39013 -0.29714,0.58033 -0.85172,1.44273 -1.86748,2.77641 -3.02152,3.97857 -0.9026,0.8946 -1.97165,1.79181 -3.26544,2.72903 l 0.0202,0.046 c -0.63069,0.43958 -1.28412,0.84886 -1.96163,1.2206 -1.73233,0.88077 -3.49908,1.59052 -5.31647,2.05775 -1.24514,0.29981 -2.53204,0.49221 -3.85093,0.5669 l -0.0765,-0.0139 -0.004,0.0191 c -0.38621,0.0205 -0.775,0.0315 -1.16633,0.0315 -0.12058,0 -0.2406,-0.003 -0.36071,-0.005 -0.4524,-0.0185 -0.9078,-0.0506 -1.36787,-0.1049 l -0.092,-0.0114 -0.008,0.0434 c -2.44623,-0.20412 -4.7741,-0.81754 -6.92051,-1.76527 l 22.3821,-5.15317 0.002,-0.0708 0.0434,0.047 c 2.72326,-2.52884 4.32141,-4.84247 5.26169,-6.6182 v -0.43356 c -0.896,1.7847 -2.49679,4.20258 -5.35471,6.86573 -0.14793,-0.0415 -4.33828,-1.22784 -8.52816,-3.81372 -4.26496,-2.63222 -8.46116,-6.68493 -8.2672,-12.39873 0.0422,-1.24394 0.41009,-2.33183 1.06402,-3.31866 l 0.0315,-0.005 -0.006,-0.032 c 0.24925,-0.371 0.53646,-0.72882 0.86558,-1.07383 0.24261,-0.2543 0.50643,-0.50232 0.79065,-0.74518 0.56863,-0.48587 1.219,-0.95136 1.9451,-1.40508 0.54446,-0.34021 1.13136,-0.67337 1.75752,-1.00304 0.20877,-0.10991 0.42234,-0.21938 0.63975,-0.32866 0.4347,-0.21849 0.88648,-0.43611 1.35444,-0.65371 0.93624,-0.43532 1.93776,-0.87099 2.99672,-1.31568 1.57407,-0.661 3.27789,-1.34297 5.08496,-2.07222 0.11178,0.0657 1.8016,1.06732 3.50263,2.69544 0.76344,0.73072 1.51941,1.58242 2.12287,2.52078 v -0.36226 c -0.58408,-0.85495 -1.28241,-1.63133 -1.98438,-2.30322 -1.53204,-1.46638 -3.01062,-2.40083 -3.41064,-2.64428 l 0.10025,-0.0408 -0.29714,-0.0744 -22.15059,-5.62291 c 2.35451,-1.04735 4.92868,-1.69277 7.6383,-1.83606 l 0.0103,0.045 0.0822,-0.002 c 1.9818,-0.0546 3.51032,0.0471 4.77077,0.24133 0.73758,0.12665 1.4625,0.28976 2.17247,0.48886 1.7058,0.52247 2.89605,1.22702 4.46123,1.81074 0.72028,0.39113 1.41279,0.82549 2.08049,1.29294 l -0.0419,0.0997 c 0.79909,0.51428 1.54479,1.06807 2.24018,1.65829 1.72617,1.57809 3.19027,3.43367 4.32842,5.49373 v -0.57154 c -0.91724,-1.58551 -2.04513,-3.01589 -3.38584,-4.28915 -0.75254,-0.76252 -1.56,-1.47038 -2.41794,-2.11615 l 5.80378,1.28571 v -0.20515 l -6.20996,-1.3746 c -0.66545,-0.4774 -1.35821,-0.91872 -2.07688,-1.32033 l -0.006,-0.016 -5.77743,-14.32781 z m 0.25425,0.21497 8.43928,0.52142 5.64048,13.99036 c -0.001,-5.3e-4 -0.003,-0.001 -0.004,-0.002 -1.45179,-0.78281 -3.0027,-1.40567 -4.62918,-1.8464 -0.53318,-0.15388 -1.11368,-0.29192 -1.77301,-0.40204 -0.50507,-0.0924 -1.01665,-0.16718 -1.53324,-0.22428 l 0.0822,-0.0181 -1.58802,-7.25175 -4.05815,-2.2288 -0.001,0.002 z m 0.63355,2.79931 3.82509,2.0991 1.56011,7.12514 c -0.75917,-0.0796 -1.52961,-0.12092 -2.30993,-0.12092 -0.33823,0 -0.67427,0.009 -1.00873,0.0238 z m -15.29002,8.94881 2.40915,0.61185 -11.24531,7.43314 -3.31866,0.21446 z m 2.6696,0.67748 6.29006,1.59732 c -1.50027,0.71549 -2.90272,1.5998 -4.18941,2.62309 l -3.67265,-0.40204 -6.56807,5.33611 3.15795,5.1108 c -0.47739,1.41064 -0.81172,2.88665 -0.98961,4.41006 l -2.19314,0.10698 -6.84558,-10.98641 3.57136,-0.23307 z m 6.60115,1.67638 21.01835,5.33559 -25.23566,-2.76055 c 1.2956,-1.01051 2.70857,-1.87692 4.21731,-2.57504 z m 27.59831,1.12862 0.43564,0.49712 v -0.44286 z m -35.70893,1.22059 3.38584,0.37001 c -1.54917,1.26523 -2.91723,2.74128 -4.06745,4.38009 l -5.51439,0.28474 z m 3.66903,0.40101 25.61859,2.8019 -29.71601,1.53427 c 1.15979,-1.62734 2.53879,-3.0873 4.09742,-4.33617 z m 26.27592,2.96933 c -0.30448,0.12272 -0.58318,0.23627 -0.88161,0.35657 -0.7777,0.3135 -1.56533,0.6298 -2.29856,0.93017 -0.131,0.0537 -0.25497,0.10634 -0.38447,0.15968 -0.40964,0.16873 -0.81824,0.33726 -1.21233,0.50333 -0.0275,0.0116 -0.0532,0.0225 -0.0806,0.0341 -0.99094,0.41838 -1.93387,0.83082 -2.81688,1.24282 -0.65317,0.30474 -1.27387,0.6097 -1.8619,0.91777 -0.0325,0.017 -0.0664,0.0341 -0.0987,0.0512 -0.0965,0.0509 -0.18907,0.10234 -0.28371,0.15348 -0.10557,0.0571 -0.21303,0.11372 -0.31626,0.17105 -0.002,10e-4 -0.005,0.003 -0.007,0.004 -0.19446,0.10807 -0.38508,0.21685 -0.57103,0.32608 -0.001,7.9e-4 -0.002,0.001 -0.004,0.002 -0.18703,0.10991 -0.36957,0.22041 -0.54777,0.33176 -1.57688,0.98534 -2.81016,2.04097 -3.63182,3.24735 l -15.57993,2.65358 -2.61741,-4.2354 c 0.64851,-1.89005 1.55109,-3.6617 2.67115,-5.27358 z m -30.7759,1.58905 c -1.05919,1.54765 -1.92292,3.23789 -2.55592,5.0369 l -2.93729,-4.7532 z m -2.50166,5.50664 2.47582,4.00699 -3.40393,0.16692 c 0.17038,-1.44021 0.48693,-2.83516 0.92811,-4.17391 z m 18.12913,1.56476 c -0.61205,0.97562 -0.96016,2.05021 -1.00149,3.26802 -0.0619,1.82368 0.31551,3.47957 0.99477,4.97541 l -15.09055,-5.67201 z m 13.25035,0.31885 c -2.25918,-1e-5 -4.30638,0.5853 -5.795,1.53892 -1.48862,0.95362 -2.42362,2.2837 -2.42362,3.76205 0,1.47833 0.935,2.8079 2.42362,3.76152 1.48862,0.95362 3.53582,1.53893 5.795,1.53893 2.25918,0 4.30638,-0.58531 5.795,-1.53893 1.17806,-0.75467 2.0071,-1.74524 2.3027,-2.85822 v -1.80661 c -0.2956,-1.11311 -1.12464,-2.10406 -2.3027,-2.85874 -1.48862,-0.95362 -3.53582,-1.53892 -5.795,-1.53892 z m 0,0.19895 c 2.22456,1e-5 4.23572,0.57922 5.68544,1.50792 1.44971,0.92869 2.33216,2.20011 2.33216,3.5941 0,1.39396 -0.88245,2.66282 -2.33216,3.59151 -1.44972,0.9287 -3.46088,1.50791 -5.68544,1.50791 -2.22456,0 -4.2378,-0.57921 -5.68751,-1.50791 -1.44971,-0.92869 -2.33216,-2.19755 -2.33216,-3.59151 0,-1.39399 0.88245,-2.66541 2.33216,-3.5941 1.44971,-0.9287 3.46295,-1.50792 5.68751,-1.50792 z m -28.90883,2.12648 -3.31711,5.67718 c -0.15268,-1.03294 -0.23306,-2.08943 -0.23306,-3.16467 0,-0.79311 0.0443,-1.57574 0.12816,-2.34662 z m 0.22531,0.0129 15.47244,5.81773 0.0284,-0.0754 c 0.46133,0.97799 1.04932,1.88766 1.72961,2.72903 0.2058,0.25453 0.42014,0.5029 0.64131,0.74518 1.4376,1.57481 3.17703,2.89233 4.92115,3.96875 2.03501,1.25595 3.97108,2.14505 5.46426,2.74298 0.0414,0.0166 0.0755,0.0288 0.11627,0.045 0.31267,0.12388 0.60827,0.23828 0.8754,0.3359 0.20862,0.0767 0.3819,0.13689 0.56069,0.19895 0.0587,0.0202 0.12691,0.0455 0.1819,0.0641 0.0192,0.007 0.0438,0.0154 0.0625,0.0217 l -32.10347,-5.65132 c -0.67141,-1.56806 -1.16135,-3.23151 -1.44384,-4.96456 z m -3.84886,0.16278 c -0.0824,0.76781 -0.12558,1.54723 -0.12557,2.33681 0,1.16983 0.0937,2.31775 0.27233,3.43751 l -2.56728,4.39457 7.275,9.15603 2.93729,-0.23617 c 1.37762,1.13573 2.89823,2.10453 4.52996,2.8789 l -6.13761,1.41283 -12.25352,-14.06891 -3.06751,-0.12712 6.96495,-9.07851 z m 0.19844,6.08387 c 0.28271,1.6204 0.74616,3.17896 1.36787,4.65501 l -3.70675,-0.65268 z m -9.30383,3.3016 2.94246,0.12299 12.12536,13.92318 -2.31873,0.53382 z m 7.04867,0.91932 3.71967,0.65475 c 1.34081,3.08635 3.37947,5.79953 5.91747,7.9468 l -2.63602,0.21187 z m 3.95634,0.69609 32.61455,5.74125 -26.65625,2.14199 c -2.55184,-2.11926 -4.60253,-4.8139 -5.9583,-7.88324 z m 32.06316,5.98464 -21.32118,4.90875 c -1.64144,-0.75491 -3.17203,-1.70693 -4.55992,-2.82877 z m 6.6673,3.70314 -0.3514,0.40204 0.3514,-0.0444 z m -8.59999,0.78911 -5.55832,14.33762 -8.88473,0.72451 0.4253,-2.1885 3.60236,-2.65927 1.4087,-7.64553 c 0.90812,-0.0499 1.80189,-0.16763 2.68252,-0.34417 2.24845,-0.41683 4.37503,-1.1774 6.32417,-2.22466 z m -12.00651,2.53059 c 0.51147,0.0385 1.02805,0.0582 1.54875,0.061 0.41847,0.0109 0.83313,0.004 1.2454,-0.0139 l -1.38493,7.52358 -3.36414,2.48305 z" />
        <path
           id="path1979"
           style="color:#000000;font-style:normal;font-variant:normal;font-weight:normal;font-stretch:normal;font-size:medium;line-height:normal;font-family:sans-serif;font-variant-ligatures:normal;font-variant-position:normal;font-variant-caps:normal;font-variant-numeric:normal;font-variant-alternates:normal;font-variant-east-asian:normal;font-feature-settings:normal;font-variation-settings:normal;text-indent:0;text-align:start;text-decoration:none;text-decoration-line:none;text-decoration-style:solid;text-decoration-color:#000000;letter-spacing:normal;word-spacing:normal;text-transform:none;writing-mode:lr-tb;direction:ltr;text-orientation:mixed;dominant-baseline:auto;baseline-shift:baseline;text-anchor:start;white-space:normal;shape-padding:0;shape-margin:0;inline-size:0;clip-rule:nonzero;display:inline;overflow:visible;visibility:visible;opacity:0.998;isolation:auto;mix-blend-mode:normal;color-interpolation:sRGB;color-interpolation-filters:linearRGB;solid-color:#000000;solid-opacity:1;vector-effect:none;fill:#000000;fill-opacity:1;fill-rule:nonzero;stroke:#ffffff;stroke-width:0.343877;stroke-linecap:butt;stroke-linejoin:round;stroke-miterlimit:4;stroke-dasharray:none;stroke-dashoffset:0;stroke-opacity:1;color-rendering:auto;image-rendering:auto;shape-rendering:auto;text-rendering:auto;enable-background:accumulate;stop-color:#000000"
           d="m 67.723921,244.82066 -0.01757,12.14293 30.804321,0.0935 -0.01291,10.26758 -5.87561,-9.21494 -0.02016,0.15452 -26.317773,0.0212 V 244.85422 H 66.02067 v 13.56402 0.13126 2.94505 l -4.142385,0.0666 -0.26665,35.22938 c -0.0029,0.005 -0.0066,0.0101 -0.0088,0.0146 -0.01823,0.0365 -0.0241,0.0692 -0.03152,0.11319 -0.02973,0.1761 -0.0432,0.50524 -0.06046,0.95342 -0.03452,0.89636 -0.08236,2.24833 -0.271301,3.58995 -0.186545,1.32461 -0.514149,2.63546 -1.086239,3.47525 l -2.22467,0.31935 0.02946,0.10956 c 0,0 0.501425,1.90604 0.05529,4.89842 h 0.206187 c 0.426315,-2.88301 -0.03079,-4.72882 -0.05839,-4.83796 l 1.97249,-0.28525 1.008206,5.12321 h 0.204639 l -1.027845,-5.2152 c 0.606287,-0.88977 0.931418,-2.2211 1.11983,-3.55894 0.190881,-1.35541 0.238874,-2.7155 0.273368,-3.61116 0.01111,-0.28898 0.02477,-0.42511 0.03721,-0.59894 0.137766,0.53893 0.371197,1.82028 0.847495,4.51136 l 1.271757,7.1856 c -7.94e-4,0.0269 -0.0041,0.053 -0.0041,0.0801 3e-6,0.43759 0.111745,0.84876 0.306959,1.20716 h 0.232545 c -0.170786,-0.2817 -0.285038,-0.60299 -0.322979,-0.94827 l 0.04909,-0.009 -0.05994,-0.33798 c 0.04584,-1.23388 1.041064,-2.21691 2.267045,-2.21691 1.255226,0 2.271694,1.02957 2.271694,2.30478 0,0.0444 -0.0043,0.0879 -0.0067,0.13176 l -0.04599,0.2217 0.02273,0.005 c -0.04729,0.30784 -0.155747,0.59444 -0.310057,0.84905 h 0.229444 c 0.172571,-0.31724 0.281355,-0.67509 0.303855,-1.0568 l 1.509985,-7.26157 c 0.55681,-2.67785 0.828799,-3.9533 0.982371,-4.48604 0.007,0.17537 0.01672,0.31436 0.01913,0.6072 0.008,0.89842 0.01437,2.26195 0.164333,3.62717 0.14792,1.34686 0.432982,2.69338 1.01079,3.6091 l -1.141534,4.96094 h 0.204123 l 1.119828,-4.85915 1.867585,0.34573 c -0.02927,0.1026 -0.500898,1.8061 -0.276468,4.51342 h 0.204639 c -0.234754,-2.81093 0.278535,-4.56615 0.278535,-4.56615 l 0.03152,-0.10748 -2.119249,-0.39222 c -0.545698,-0.86521 -0.834363,-2.19239 -0.980818,-3.52589 -0.148431,-1.35146 -0.156234,-2.70843 -0.163814,-3.60754 -0.004,-0.44952 -0.0052,-0.77959 -0.02946,-0.95705 -0.006,-0.0444 -0.01193,-0.0762 -0.02894,-0.11316 -0.008,-0.0185 -0.01852,-0.0425 -0.05271,-0.0625 -0.0343,-0.0201 -0.09233,-0.0145 -0.119375,0.003 -0.0541,0.0332 -0.06043,0.064 -0.07803,0.10335 -0.01759,0.0393 -0.03508,0.0892 -0.05478,0.15245 -0.157541,0.50578 -0.449982,1.91104 -1.033013,4.71496 l -1.370976,6.59286 c -0.251401,-1.11308 -1.233895,-1.94665 -2.408637,-1.94665 -1.12695,0 -2.076489,0.76724 -2.374016,1.81229 l -1.168921,-6.60733 c -0.499205,-2.82051 -0.750043,-4.23508 -0.89245,-4.74596 -0.01214,-0.0436 -0.02328,-0.0734 -0.03462,-0.10544 h 0.0072 l 0.267684,-35.08208 4.142383,-0.0682 v -3.20498 l 26.284184,-0.0222 -6.667812,51.73638 h 0.201538 l 6.64714,-51.58187 5.74797,9.01237 v 0.0656 h 0.03101 l -5.603277,42.50388 h 0.202054 l 5.536615,-42.0026 8.935885,42.0026 h 0.20464 l -9.043375,-42.50335 0.0155,-10.96677 -30.80432,-0.0941 0.01757,-11.87886 z m -3.24063,0.16639 -0.132808,14.50196 -25.37933,-0.0935 -0.01913,-0.15296 -6.136573,9.48055 -8.973614,41.54115 h 0.204639 l 8.839253,-40.91998 5.4653,40.91998 h 0.202573 l -5.540233,-41.47966 5.809983,-8.97361 6.355167,50.45327 h 0.200504 l -6.374288,-50.60469 25.60774,0.093 0.136424,-14.76396 z" />
      </g>
    </g>
  </g>
</svg>
