<?xml version="1.0" encoding="UTF-8" standalone="no"?>
<svg
   xmlns:dc="http://purl.org/dc/elements/1.1/"
   xmlns:cc="http://creativecommons.org/ns#"
   xmlns:rdf="http://www.w3.org/1999/02/22-rdf-syntax-ns#"
   xmlns:svg="http://www.w3.org/2000/svg"
   xmlns="http://www.w3.org/2000/svg"
   xmlns:xlink="http://www.w3.org/1999/xlink"
   xmlns:sodipodi="http://sodipodi.sourceforge.net/DTD/sodipodi-0.dtd"
   xmlns:inkscape="http://www.inkscape.org/namespaces/inkscape"
   width="1200"
   height="800"
   viewBox="0 0 317.49999 211.66667"
   version="1.1"
   id="svg8"
   inkscape:version="1.0.1 (3bc2e813f5, 2020-09-07)"
   sodipodi:docname="Nerve_Boost_2.svg">
  <defs
     id="defs2">
    <linearGradient
       inkscape:collect="always"
       id="800">
      <stop
         style="stop-color:#008080;stop-opacity:1;"
         offset="0"
         id="stop937" />
      <stop
         style="stop-color:#008080;stop-opacity:0;"
         offset="1"
         id="stop939" />
    </linearGradient>
    <linearGradient
       inkscape:collect="always"
       xlink:href="#800"
       id="linearGradient943"
       x1="15.119047"
       y1="79.850495"
       x2="302.00299"
       y2="79.850495"
       gradientUnits="userSpaceOnUse"
       gradientTransform="matrix(0.53293877,0,0,1.8729574,-164.54269,9.115014)" />
  </defs>
  <sodipodi:namedview
     id="base"
     pagecolor="#ffffff"
     bordercolor="#666666"
     borderopacity="1.0"
     inkscape:pageopacity="0.0"
     inkscape:pageshadow="2"
     inkscape:zoom="0.7"
     inkscape:cx="704.88374"
     inkscape:cy="398.53873"
     inkscape:document-units="px"
     inkscape:current-layer="layer1"
     inkscape:document-rotation="0"
     showgrid="false"
     inkscape:window-width="1920"
     inkscape:window-height="1017"
     inkscape:window-x="-8"
     inkscape:window-y="-8"
     inkscape:window-maximized="1"
     units="px" />
  <metadata
     id="metadata5">
    <rdf:RDF>
      <cc:Work
         rdf:about="">
        <dc:format>image/svg+xml</dc:format>
        <dc:type
           rdf:resource="http://purl.org/dc/dcmitype/StillImage" />
        <dc:title></dc:title>
      </cc:Work>
    </rdf:RDF>
  </metadata>
  <g
     inkscape:label="Layer 1"
     inkscape:groupmode="layer"
     id="layer1">
    <rect
       style="fill:url(#linearGradient943);fill-opacity:1;stroke:none;stroke-width:1.40909;stroke-linejoin:bevel;stroke-miterlimit:4;stroke-dasharray:none;opacity:0.6516129"
       id="rect858-8"
       width="152.89157"
       height="287.05563"
       x="-156.48517"
       y="15.143793"
       ry="0.8943252"
       transform="matrix(1.5825144e-4,-0.99999999,1,1.2812872e-5,0,0)" />
    <path
       style="fill:#008080;stroke:#000000;stroke-width:1.32292;stroke-linecap:butt;stroke-linejoin:miter;stroke-miterlimit:4;stroke-dasharray:none;stroke-opacity:1"
       d="m 42.083689,104.86367 c 0,0 10.713621,-16.125603 9.374419,-38.701429 C 50.118905,43.586414 46.101297,37.880434 46.101297,37.880434 47.214368,37.483905 76.929216,62.584269 81.456251,78.566543 80.920569,33.662971 87.080903,28.949337 87.080903,28.949337 l 10.981462,-4.713635 c 0,0 -2.678405,2.728946 -6.696014,15.877507 -4.017608,13.148559 -3.749768,64.998551 -3.749768,64.998551 0,0 -3.481928,-14.637083 -16.873954,-29.026076 C 57.3506,61.696694 59.761167,62.937124 59.761167,62.937124 c 0.267841,32.251193 -0.535682,32.995443 -6.160334,36.468653 -4.28094,2.643463 -11.517144,5.457893 -11.517144,5.457893 z"
       id="path3576"
       sodipodi:nodetypes="csccccscscsc" />
    <path
       id="path3631"
       style="fill:#008080;stroke:#000000;stroke-width:1.32292;stroke-linecap:butt;stroke-linejoin:miter;stroke-miterlimit:4;stroke-dasharray:none;stroke-opacity:1"
       d="m 122.28738,40.7663 c -8.83407,0.07184 -15.29629,4.75276 -20.40987,9.93323 -6.060537,6.139814 -9.469621,25.787614 -7.575703,31.752007 1.893918,5.96439 4.924499,9.29693 4.924499,9.29693 l 15.151404,6.31554 c 2.84706,-1.38275 7.45064,-3.40241 21.78015,-8.9469 l 2.08288,-6.841263 -1.3256,-9.823337 -6.43906,8.595504 -15.53004,9.297606 -11.93188,-4.3856 c 0,0 -4.924494,-3.157663 -3.030584,-11.402557 1.893934,-8.244898 5.113464,-11.227539 5.113464,-11.227539 26.32547,-0.175426 31.06082,1.57922 31.06082,1.57922 0,0 3.0297,-1.052975 3.40848,-6.841942 0.37878,-5.788968 -0.56792,-14.735212 -12.12083,-16.840292 -1.80515,-0.328918 -3.52219,-0.47391 -5.15813,-0.460607 z m -2.52963,7.105825 c 2.60002,-0.0192 5.47453,0.16302 7.87744,0.546758 5.49237,0.877116 5.87073,6.666247 5.87073,6.666247 0,0 0.75756,4.385595 -1.89392,3.508478 -2.65149,-0.877115 -25.37831,-1.052137 -25.37831,-1.052137 0,0 0.37849,-1.929807 1.70423,-4.034886 1.32575,-2.10508 3.21969,-3.333331 4.73482,-4.561295 0.85226,-0.690729 3.74212,-1.048497 7.08501,-1.073165 z" />
    <path
       style="fill:#008080;stroke:#000000;stroke-width:1.32292;stroke-linecap:butt;stroke-linejoin:miter;stroke-miterlimit:4;stroke-dasharray:none;stroke-opacity:1"
       d="m 143.25872,38.442332 c 4.01665,23.85255 1.38169,62.135228 1.38169,62.135228 l 6.94493,-4.077773 c 0,0 -1.10457,-2.39878 -1.45294,-4.83973 -0.34836,-2.44096 0.0793,-36.734263 0.13179,-38.846081 0.0525,-2.111817 3.08867,-2.105357 3.08867,-2.105357 0,0 11.4865,-1.343384 14.97346,2.679983 3.48696,4.023365 3.97629,11.55294 3.97629,11.55294 0,0 5.31175,-2.932267 5.387,-4.693871 0.0753,-1.761602 -0.80355,-9.445202 -3.27699,-12.470633 -2.47342,-3.02543 -24.40759,-4.790098 -24.40759,-4.790098 l -1.37327,-3.613992 z"
       id="path3640"
       sodipodi:nodetypes="cccsscscssccc" />
    <path
       style="fill:#008080;stroke:#000000;stroke-width:1.32292;stroke-linecap:butt;stroke-linejoin:miter;stroke-miterlimit:4;stroke-dasharray:none;stroke-opacity:1"
       d="m 175.17233,41.577676 c 7.1969,10.876246 12.68926,55.784621 12.68926,55.784621 0,0 -0.18939,9.472863 5.49237,6.490663 5.68175,-2.9822 14.96195,-49.293958 14.96195,-49.293958 0,0 0.56818,-2.455926 2.2727,-8.069473 1.70453,-5.613545 1.70453,-6.139815 1.70453,-6.139815 l -9.46958,10.876244 c 0,0 -7.57568,45.610069 -9.4696,44.382099 -1.89391,-1.22796 -8.33324,-47.013448 -8.33324,-47.013448 z"
       id="path3644"
       sodipodi:nodetypes="ccscsccscc" />
    <path
       id="path3631-8"
       style="fill:#008080;stroke:#000000;stroke-width:1.32292;stroke-linecap:butt;stroke-linejoin:miter;stroke-miterlimit:4;stroke-dasharray:none;stroke-opacity:1"
       d="m 238.71141,43.443212 c -8.83407,0.07184 -15.29629,4.752759 -20.40988,9.933228 -6.06053,6.139816 -9.46961,25.787614 -7.5757,31.752007 1.89392,5.9644 4.92452,9.29693 4.92452,9.29693 l 15.1514,6.315543 c 2.84705,-1.382743 6.64711,-4.518793 20.97662,-10.063283 l 4.35952,-7.461483 -2.79872,-8.086735 -6.43906,8.595506 -15.53003,9.297612 -11.93189,-4.3856 c 0,0 -4.9245,-3.15767 -3.03058,-11.402565 1.89392,-8.244898 5.11346,-11.22754 5.11346,-11.22754 26.32546,-0.175425 31.06082,1.579221 31.06082,1.579221 0,0 3.02969,-1.052975 3.40848,-6.841942 0.37878,-5.788969 -0.56793,-14.735214 -12.12083,-16.840292 -1.80516,-0.328919 -3.5222,-0.47391 -5.15813,-0.460607 z m -2.52963,7.105823 c 2.60002,-0.0192 5.47453,0.16302 7.87743,0.546759 5.49237,0.877117 5.87075,6.666248 5.87075,6.666248 0,0 0.75755,4.385595 -1.89392,3.508478 -2.6515,-0.877115 -25.37832,-1.052137 -25.37832,-1.052137 0,0 0.37849,-1.929808 1.70424,-4.034886 1.32573,-2.105082 3.21968,-3.333332 4.73481,-4.561296 0.85227,-0.69073 3.74212,-1.048498 7.08501,-1.073166 z"
       sodipodi:nodetypes="sssccccccccsccssssscscsss" />
    <path
       id="path3661"
       style="fill:#ffff00;stroke:#000000;stroke-width:1.32292;stroke-linecap:butt;stroke-linejoin:miter;stroke-miterlimit:4;stroke-dasharray:none;stroke-opacity:1"
       d="m 146.80492,106.52892 c -1.73363,0.002 -2.86872,0.0149 -2.86872,0.0149 2.72663,19.00549 -11.61769,44.03821 2.36191,43.09961 13.9796,-0.93859 23.0998,2.25434 23.99997,-4.47243 0.90018,-6.72677 0.85306,-14.33117 -1.10441,-15.27871 -16.59205,-4.86737 1.4885,0.46693 1.46621,-9.95086 -0.36816,-11.75365 -4.62277,-11.35916 -6.59138,-12.48183 -1.47647,-0.842 -12.06271,-0.93624 -17.26358,-0.93071 z m 1.91955,3.96093 c 0,0 11.36341,0.52601 12.68915,0.70143 1.32576,0.17542 2.84061,1.93009 3.59817,4.21059 0.75757,2.2805 0.37893,5.96442 -1.3256,7.01696 -1.70452,1.05253 -11.74219,-0.52641 -11.74219,-0.52641 0,0 -3.21953,-0.17558 -3.21953,-5.78913 z m -0.43649,21.90698 c 0,0 11.36341,0.35098 12.68915,0.5264 1.32574,0.17543 3.03029,1.57869 3.78786,3.8592 0.75756,2.2805 0.37818,6.49082 -1.32634,7.54336 -1.70453,1.05254 -11.7422,0.70143 -11.7422,0.70143 0,0 -5.1136,0.35124 -5.68177,-3.68351 -0.52366,-3.71861 2.2733,-8.94688 2.2733,-8.94688 z" />
    <path
       style="fill:#ff2a2a;stroke:#000000;stroke-width:1.32292;stroke-linecap:butt;stroke-linejoin:miter;stroke-miterlimit:4;stroke-dasharray:none;stroke-opacity:1"
       d="m 232.2913,121.28665 c 3.88105,-0.1259 3.05228,1.42813 5.93674,-1.85705 2.45846,-2.8 0.009,-5.55067 -5.27091,-6.59155 -3.96468,-0.78171 -8.42182,-0.10726 -9.57191,6.80147 -1.39531,8.38179 15.64365,13.4563 16.4096,17.81889 0.76118,4.33531 1.91647,9.78429 -3.79661,10.59181 -9.77562,1.38174 -12.47999,0.41222 -14.44115,-1.85495 -1.96115,-2.26715 -3.03087,-8.03809 -0.53486,-10.09914 2.49602,-2.06106 2.46094,4.00142 3.88721,6.26858 1.42629,2.26717 10.69716,1.63044 10.69716,-1.25502 0,-2.88547 -14.33453,-13.74295 -15.22888,-17.72848 -0.78151,-3.48276 -1.07765,-7.86138 1.72445,-11.29557 3.22447,-3.9518 4.45713,-3.50377 9.27085,-2.88546 2.65795,0.3414 7.56158,-0.13727 10.55395,4.8745 3.05966,5.12451 -2.11476,9.06482 -2.11476,9.06482 -2.85255,1.23662 -4.43415,1.62748 -6.18448,1.00371 -1.66188,-0.59226 -1.3364,-2.85656 -1.3364,-2.85656 z"
       id="path3745"
       sodipodi:nodetypes="csssssssssssssssc" />
    <path
       style="fill:#d40000;stroke:#000000;stroke-width:1.32292;stroke-linecap:butt;stroke-linejoin:miter;stroke-miterlimit:4;stroke-dasharray:none;stroke-opacity:1"
       d="m 254.63267,114.28551 c 2.44145,21.10343 0.4439,31.45092 1.10976,34.03779 0.66586,2.58686 2.99633,2.04227 3.32926,-1.0892 0.33292,-3.13149 -1.85695,-32.59824 -0.11101,-32.81244 2.2195,-0.2723 8.32313,0 9.09996,0 0.77683,0 2.74428,-0.407 3.27376,-1.90612 0.36068,-1.02114 0.13874,-1.63382 -2.82986,-1.63382 -2.22228,0 -19.92006,-0.40846 -23.02737,-0.40846 -2.53304,0 -0.27743,3.53994 0.83232,3.53994 1.10976,0 8.32315,0.27231 8.32315,0.27231 z"
       id="path3747"
       sodipodi:nodetypes="cssssssssc" />
    <path
       id="path3749-8"
       style="fill:#ffeeaa;stroke:#000000;stroke-width:1.32292;stroke-linecap:butt;stroke-linejoin:miter;stroke-miterlimit:4;stroke-dasharray:none;stroke-opacity:1"
       d="m 185.01691,106.26934 c -0.32855,-0.002 -0.66626,0.0444 -1.0134,0.14156 -5.5542,1.55439 -6.18549,4.29697 -6.18549,4.29697 -4.79679,12.70944 -3.2818,34.9285 0.37892,37.76299 3.66072,2.83447 11.61344,2.92546 12.11836,0.54815 0.50493,-2.37729 5.1754,-7.58868 3.78684,-20.11524 -1.30175,-11.74364 -4.15693,-22.60362 -9.08523,-22.63443 z m -0.63389,5.70122 c 2.95442,0.024 4.66615,8.48886 5.44653,17.64309 0.8324,9.76451 -1.96786,13.82721 -2.27057,15.68032 -0.30269,1.85312 -5.06987,1.7817 -7.26441,-0.42779 -2.19454,-2.20949 -3.10281,-19.52855 -0.22722,-29.43561 0,0 0.37871,-2.1383 3.70834,-3.34996 0.20809,-0.0757 0.41037,-0.11165 0.60733,-0.11005 z" />
    <path
       id="path3749-8-5"
       style="fill:#ff6600;stroke:#000000;stroke-width:1.32292;stroke-linecap:butt;stroke-linejoin:miter;stroke-miterlimit:4;stroke-dasharray:none;stroke-opacity:1"
       d="m 206.99552,106.00334 c -0.32855,-0.002 -0.66626,0.0444 -1.0134,0.14156 -5.5542,1.55439 -6.18549,4.29697 -6.18549,4.29697 -4.79679,12.70943 -3.28181,34.9285 0.37892,37.76299 3.66072,2.83447 11.61344,2.92546 12.11836,0.54815 0.50493,-2.37729 5.1754,-7.58869 3.78684,-20.11524 -1.30175,-11.74364 -4.15693,-22.60362 -9.08523,-22.63443 z m -0.63389,5.70122 c 2.95442,0.024 4.66615,8.48886 5.44653,17.64309 0.8324,9.76451 -1.96787,13.82721 -2.27057,15.68032 -0.30269,1.85312 -5.06987,1.78169 -7.26441,-0.42779 -2.19454,-2.20949 -3.10281,-19.52855 -0.22723,-29.43561 0,0 0.37872,-2.1383 3.70834,-3.34996 0.2081,-0.0757 0.41038,-0.11165 0.60734,-0.11005 z" />
    <ellipse
       style="fill:#1a1a1a;fill-opacity:1;stroke:#000000;stroke-width:1.32292;stroke-linejoin:bevel;stroke-miterlimit:4;stroke-dasharray:none"
       id="path883"
       cx="19.087797"
       cy="193.33481"
       rx="16.441963"
       ry="16.063988" />
    <ellipse
       style="fill:#1a1a1a;fill-opacity:1;stroke:#000000;stroke-width:1.32292;stroke-linejoin:bevel;stroke-miterlimit:4;stroke-dasharray:none"
       id="path883-3"
       cx="297.46725"
       cy="192.76787"
       rx="16.441963"
       ry="16.063988" />
    <rect
       style="fill:#333333;fill-opacity:1;stroke:#000000;stroke-width:1.32292;stroke-linejoin:bevel;stroke-miterlimit:4;stroke-dasharray:none"
       id="rect904"
       width="192.0119"
       height="22.300594"
       x="67.657738"
       y="169.33333"
       ry="0.45101669" />
    <rect
       style="fill:#1a1a1a;fill-opacity:1;stroke:#000000;stroke-width:1.32292;stroke-linejoin:bevel;stroke-miterlimit:4;stroke-dasharray:none"
       id="rect900"
       width="254.75594"
       height="9.0714283"
       x="31.372023"
       y="188.23215"
       ry="0.45101669" />
    <rect
       style="fill:#333333;fill-opacity:1;stroke:#000000;stroke-width:1.32292;stroke-linejoin:bevel;stroke-miterlimit:4;stroke-dasharray:none"
       id="rect906"
       width="286.88394"
       height="15.119047"
       x="15.119047"
       y="156.48215"
       ry="0.45101669" />
  </g>
</svg>
