<?xml version="1.0" encoding="UTF-8" standalone="no"?>
<svg
   xmlns:dc="http://purl.org/dc/elements/1.1/"
   xmlns:cc="http://creativecommons.org/ns#"
   xmlns:rdf="http://www.w3.org/1999/02/22-rdf-syntax-ns#"
   xmlns:svg="http://www.w3.org/2000/svg"
   xmlns="http://www.w3.org/2000/svg"
   xmlns:sodipodi="http://sodipodi.sourceforge.net/DTD/sodipodi-0.dtd"
   xmlns:inkscape="http://www.inkscape.org/namespaces/inkscape"
   width="53.322952mm"
   height="42.06488mm"
   viewBox="0 0 53.322952 42.06488"
   version="1.1"
   id="svg8"
   inkscape:version="1.0.1 (3bc2e813f5, 2020-09-07)"
   sodipodi:docname="Developer Tea Party Cup.svg">
  <defs
     id="defs2" />
  <sodipodi:namedview
     id="base"
     pagecolor="#ffffff"
     bordercolor="#666666"
     borderopacity="1.0"
     inkscape:pageopacity="0.0"
     inkscape:pageshadow="2"
     inkscape:zoom="1.979899"
     inkscape:cx="131.40263"
     inkscape:cy="104.57741"
     inkscape:document-units="mm"
     inkscape:current-layer="layer1"
     inkscape:document-rotation="0"
     showgrid="false"
     inkscape:window-width="1920"
     inkscape:window-height="1017"
     inkscape:window-x="-8"
     inkscape:window-y="-8"
     inkscape:window-maximized="1" />
  <metadata
     id="metadata5">
    <rdf:RDF>
      <cc:Work
         rdf:about="">
        <dc:format>image/svg+xml</dc:format>
        <dc:type
           rdf:resource="http://purl.org/dc/dcmitype/StillImage" />
        <dc:title></dc:title>
      </cc:Work>
    </rdf:RDF>
  </metadata>
  <g
     inkscape:label="Layer 1"
     inkscape:groupmode="layer"
     id="layer1"
     transform="translate(-7.3563809,-6.9377989)">
    <g
       id="g952"
       transform="translate(-28.135618,-24.079017)">
      <path
         style="fill:#fff6d5;stroke:#fff6d5;stroke-width:1.37953;stroke-linecap:square;paint-order:markers stroke fill"
         d="m 270.16014,260.23059 c 0,-0.63096 4.09784,-3.72913 5.10129,-5.07947 l 1.59732,-2.14951 4.02768,-1.1816 c 10.95151,-3.21285 21.17275,-7.0611 29.38483,-11.06326 6.85967,-3.34306 11.68525,-6.49249 14.82142,-9.67325 2.93579,-2.97752 4.04239,-5.13539 4.20652,-8.2027 0.49901,-9.32595 -11.11879,-10.69439 -31.88676,-3.75588 -5.04573,1.68576 -6.24814,1.91025 -6.2486,1.1666 -1.6e-4,-0.24554 0.26108,-1.76313 0.58053,-3.37242 l 0.5808,-2.92599 3.79447,-0.89606 c 8.60471,-2.03198 13.78856,-2.73152 20.19158,-2.72476 5.81223,0.006 9.00159,0.56962 12.24862,2.16407 6.91973,3.39792 7.8179,11.54988 2.04758,18.5843 -6.96485,8.49065 -23.83134,17.50905 -48.32189,25.83741 -7.9363,2.69885 -12.12539,4.73149 -12.12539,3.27252 z"
         id="path939"
         transform="scale(0.26458333)"
         sodipodi:nodetypes="sscssssssscscssss" />
      <path
         style="fill:#fff6d5;stroke:#fff6d5;stroke-width:1.37953;stroke-linecap:square;paint-order:markers stroke fill"
         d="m 175.44983,273.48799 c -16.74471,-9.56678 -29.21229,-26.02037 -35.54324,-46.90678 -2.35583,-7.77211 -4.45676,-20.62333 -4.45676,-27.26168 v -2.15301 h 78.58632 78.58632 l -0.21124,2.76785 c -1.33132,17.44414 -4.06462,28.55999 -9.98935,40.625 -4.56821,9.30263 -8.98205,15.39129 -16.31183,22.50132 -4.61175,4.47349 -9.1078,7.87779 -13.78888,10.44061 l -2.7642,1.51335 -35.71429,0.002 -35.71428,0.002 -2.67857,-1.53035 z"
         id="path937"
         transform="scale(0.26458333)" />
      <g
         id="g903"
         transform="translate(-1.0394345,19.465774)">
        <path
           style="fill:none;stroke:#000000;stroke-width:0.264583px;stroke-linecap:butt;stroke-linejoin:miter;stroke-opacity:1"
           d="m 36.66369,32.505951 c 0.377976,16.441965 11.528274,20.97768 11.528274,20.97768 h 18.898809"
           id="path847"
           sodipodi:nodetypes="ccc" />
        <path
           style="fill:none;stroke:#000000;stroke-width:0.264583px;stroke-linecap:butt;stroke-linejoin:miter;stroke-opacity:1"
           d="m 78.616545,32.505951 c -0.37789,16.441965 -11.525772,20.97768 -11.525772,20.97768"
           id="path847-2"
           sodipodi:nodetypes="cc" />
        <path
           style="fill:none;stroke:#000000;stroke-width:0.264583px;stroke-linecap:butt;stroke-linejoin:miter;stroke-opacity:1"
           d="M 36.66369,32.505951 H 78.616544"
           id="path879" />
        <path
           style="fill:none;stroke:#000000;stroke-width:0.264583px;stroke-linecap:butt;stroke-linejoin:miter;stroke-opacity:1"
           d="m 78.193823,37.041665 c 0,0 11.528273,-3.543526 11.528273,2.267859 0,5.811382 -17.623138,10.536086 -17.623138,10.536086"
           id="path881"
           sodipodi:nodetypes="csc" />
        <path
           style="fill:none;stroke:#000000;stroke-width:0.264583px;stroke-linecap:butt;stroke-linejoin:miter;stroke-opacity:1"
           d="m 77.750488,39.426609 c 0,0 10.273375,-4.283438 10.273375,6.13e-4 0,4.284049 -13.976575,7.913604 -13.976575,7.913604"
           id="path881-0"
           sodipodi:nodetypes="csc" />
      </g>
      <path
         style="fill:none;stroke:#000000;stroke-width:0.264583px;stroke-linecap:butt;stroke-linejoin:miter;stroke-opacity:1"
         d="m 48.645287,48.99676 c -1.151946,-2.481989 1.511931,-6.70808 1.511931,-6.70808 0,0 0.791964,-1.542858 1.871914,-3.823606 1.07995,-2.280747 -0.791963,-7.378889 -0.791963,-7.378889 l 2.519885,4.091929 c 0,0 0.35998,5.366466 -1.871915,7.177646 -2.231897,1.811183 -3.239852,6.641 -3.239852,6.641 z"
         id="path905"
         sodipodi:nodetypes="ccsccsc" />
      <path
         style="fill:none;stroke:#000000;stroke-width:0.264583px;stroke-linecap:butt;stroke-linejoin:miter;stroke-opacity:1"
         d="m 54.647776,49.298238 c -1.151946,-2.481989 1.511931,-6.70808 1.511931,-6.70808 0,0 0.791964,-1.542858 1.871914,-3.823607 1.079951,-2.280746 -0.791962,-7.378889 -0.791962,-7.378889 l 2.519885,4.09193 c 0,0 0.359979,5.366466 -1.871916,7.177646 -2.231896,1.811183 -3.239852,6.641 -3.239852,6.641 z"
         id="path905-6"
         sodipodi:nodetypes="ccsccsc" />
      <path
         style="fill:none;stroke:#000000;stroke-width:0.264583px;stroke-linecap:butt;stroke-linejoin:miter;stroke-opacity:1"
         d="m 60.407513,49.231157 c -1.151946,-2.481988 1.511931,-6.70808 1.511931,-6.70808 0,0 0.791964,-1.542858 1.871914,-3.823607 1.079951,-2.280747 -0.791962,-7.378889 -0.791962,-7.378889 l 2.519885,4.091929 c 0,0 0.359979,5.366467 -1.871916,7.177648 -2.231896,1.811182 -3.239852,6.640999 -3.239852,6.640999 z"
         id="path905-6-6"
         sodipodi:nodetypes="ccsccsc" />
    </g>
  </g>
</svg>
