<?xml version="1.0" encoding="UTF-8" standalone="no"?>
<svg
   xmlns:dc="http://purl.org/dc/elements/1.1/"
   xmlns:cc="http://creativecommons.org/ns#"
   xmlns:rdf="http://www.w3.org/1999/02/22-rdf-syntax-ns#"
   xmlns:svg="http://www.w3.org/2000/svg"
   xmlns="http://www.w3.org/2000/svg"
   xmlns:sodipodi="http://sodipodi.sourceforge.net/DTD/sodipodi-0.dtd"
   xmlns:inkscape="http://www.inkscape.org/namespaces/inkscape"
   width="23.854519mm"
   height="30.408524mm"
   viewBox="0 0 23.854519 30.408524"
   version="1.1"
   id="svg2784"
   inkscape:version="1.0.1 (3bc2e813f5, 2020-09-07)"
   sodipodi:docname="Search_Icon 1.svg">
  <defs
     id="defs2778" />
  <sodipodi:namedview
     id="base"
     pagecolor="#ffffff"
     bordercolor="#666666"
     borderopacity="1.0"
     inkscape:pageopacity="0.0"
     inkscape:pageshadow="2"
     inkscape:zoom="3.959798"
     inkscape:cx="106.66996"
     inkscape:cy="61.332038"
     inkscape:document-units="mm"
     inkscape:current-layer="layer1"
     inkscape:document-rotation="0"
     showgrid="false"
     fit-margin-top="0"
     fit-margin-left="0"
     fit-margin-right="0"
     fit-margin-bottom="0"
     inkscape:window-width="1920"
     inkscape:window-height="1017"
     inkscape:window-x="-8"
     inkscape:window-y="-8"
     inkscape:window-maximized="1" />
  <metadata
     id="metadata2781">
    <rdf:RDF>
      <cc:Work
         rdf:about="">
        <dc:format>image/svg+xml</dc:format>
        <dc:type
           rdf:resource="http://purl.org/dc/dcmitype/StillImage" />
        <dc:title></dc:title>
      </cc:Work>
    </rdf:RDF>
  </metadata>
  <g
     inkscape:label="Layer 1"
     inkscape:groupmode="layer"
     id="layer1"
     transform="translate(-1.8888392,-1.6215703)">
    <circle
       style="fill:none;stroke:#000000;stroke-width:0.365;stroke-linecap:square;stroke-miterlimit:4;stroke-dasharray:none;paint-order:markers stroke fill"
       id="path3349"
       cx="11.693042"
       cy="11.425773"
       r="9.6217022" />
    <circle
       style="fill:none;stroke:#000000;stroke-width:0.365001;stroke-linecap:square;stroke-miterlimit:4;stroke-dasharray:none;paint-order:markers stroke fill"
       id="path3349-2"
       cx="11.75986"
       cy="11.425772"
       r="7.1494589" />
    <g
       id="g3378"
       transform="translate(-4.0758602,-6.1471991)"
       style="fill:#333333">
      <path
         style="fill:#333333;stroke:#000000;stroke-width:0.264583px;stroke-linecap:butt;stroke-linejoin:miter;stroke-opacity:1"
         d="m 19.777945,26.125596 7.550364,11.893494 c 0,0 2.004522,-0.668174 2.338609,-1.336347 L 21.849284,24.722431"
         id="path3366" />
      <path
         style="fill:#333333;stroke:#000000;stroke-width:0.264583px;stroke-linecap:butt;stroke-linejoin:miter;stroke-opacity:1"
         d="m 19.777945,26.125596 c 2.071339,-1.403165 2.071339,-1.403165 2.071339,-1.403165"
         id="path3374" />
    </g>
    <path
       style="fill:#333333;stroke:#000000;stroke-width:0.365001;stroke-linecap:square;stroke-miterlimit:4;stroke-dasharray:none;paint-order:markers stroke fill"
       d="M 10.734892,20.783059 C 6.5213319,20.316084 3.1322131,17.132794 2.4233198,12.976266 2.2865717,12.174458 2.2846083,10.729245 2.4191367,9.8977368 2.5393695,9.1545923 2.942191,7.9052788 3.2740576,7.24628 4.5916273,4.6299359 7.1059439,2.7410757 10.033309,2.168447 c 0.890392,-0.1741717 2.581209,-0.1570818 3.487093,0.035246 3.790763,0.8048164 6.612191,3.644897 7.411187,7.4601828 0.191754,0.9156422 0.177012,2.7012462 -0.03,3.6335622 -0.464089,2.090127 -1.411618,3.722947 -2.991514,5.155101 -1.873599,1.69839 -4.673427,2.607782 -7.175185,2.33052 z m 2.60753,-2.158495 c 2.126324,-0.482946 3.945236,-1.874275 4.924699,-3.767016 0.504261,-0.974449 0.712326,-1.685893 0.817186,-2.794241 C 19.439844,8.3053584 16.794891,4.8330369 13.081452,4.1826974 12.383293,4.0604279 11.133744,4.0598694 10.451435,4.1815333 8.192672,4.5842611 6.1938243,6.0785074 5.1734828,8.1270869 2.9518824,12.587481 5.7180239,17.941027 10.644379,18.715373 c 0.537585,0.0845 2.167785,0.02964 2.698043,-0.0908 z"
       id="path3368" />
  </g>
</svg>
